<svg width="32" height="32" viewBox="0 0 32 32" fill="none" xmlns="http://www.w3.org/2000/svg">
<path opacity="0.4" d="M21.434 2.66638H25.9486C27.8183 2.66638 29.3333 4.19418 29.3333 6.07967V10.6324C29.3333 12.5179 27.8183 14.0457 25.9486 14.0457H21.434C19.5643 14.0457 18.0493 12.5179 18.0493 10.6324V6.07967C18.0493 4.19418 19.5643 2.66638 21.434 2.66638Z" fill="#716FE7"/>
<path fill-rule="evenodd" clip-rule="evenodd" d="M6.0512 2.66638H10.5658C12.4355 2.66638 13.9505 4.19418 13.9505 6.07967V10.6324C13.9505 12.5179 12.4355 14.0457 10.5658 14.0457H6.0512C4.18151 14.0457 2.6665 12.5179 2.6665 10.6324V6.07967C2.6665 4.19418 4.18151 2.66638 6.0512 2.66638ZM6.0512 17.9537H10.5658C12.4355 17.9537 13.9505 19.4815 13.9505 21.367V25.9197C13.9505 27.8039 12.4355 29.333 10.5658 29.333H6.0512C4.18151 29.333 2.6665 27.8039 2.6665 25.9197V21.367C2.6665 19.4815 4.18151 17.9537 6.0512 17.9537ZM25.9485 17.9537H21.4339C19.5642 17.9537 18.0492 19.4815 18.0492 21.367V25.9197C18.0492 27.8039 19.5642 29.333 21.4339 29.333H25.9485C27.8182 29.333 29.3332 27.8039 29.3332 25.9197V21.367C29.3332 19.4815 27.8182 17.9537 25.9485 17.9537Z" fill="#716FE7"/>
</svg>
