<svg width="32" height="32" viewBox="0 0 32 32" fill="none" xmlns="http://www.w3.org/2000/svg">
<path opacity="0.4" d="M21.7769 29.333H10.2214C5.70236 29.333 2.6665 26.1636 2.6665 21.4454V10.5553C2.6665 5.8372 5.70236 2.66638 10.2214 2.66638H21.7783C26.2973 2.66638 29.3332 5.8372 29.3332 10.5553V21.4454C29.3332 26.1636 26.2973 29.333 21.7769 29.333Z" fill="#716FE7"/>
<path fill-rule="evenodd" clip-rule="evenodd" d="M14.9931 11.5664C14.9931 13.393 13.5064 14.8797 11.6797 14.8797C9.85174 14.8797 8.3664 13.393 8.3664 11.5664C8.3664 9.73971 9.85174 8.25171 11.6797 8.25171C13.5064 8.25171 14.9931 9.73971 14.9931 11.5664ZM25.867 18.7832C26.1777 19.0845 26.4003 19.4285 26.547 19.7952C26.991 20.9045 26.7603 22.2378 26.2857 23.3365C25.723 24.6445 24.6457 25.6325 23.2883 26.0645C22.6857 26.2578 22.0537 26.3405 21.423 26.3405H10.2483C9.13634 26.3405 8.15234 26.0818 7.34567 25.5965C6.84034 25.2925 6.751 24.5925 7.12567 24.1365C7.75234 23.3765 8.371 22.6138 8.995 21.8445C10.1843 20.3725 10.9857 19.9458 11.8763 20.3205C12.2377 20.4752 12.6003 20.7085 12.9737 20.9538C13.9683 21.6125 15.351 22.5165 17.1723 21.5352C18.4173 20.8544 19.14 19.6895 19.769 18.6756L19.7817 18.6552C19.824 18.5873 19.866 18.5195 19.9078 18.4519C20.1217 18.1063 20.3324 17.7658 20.571 17.4525C20.867 17.0645 21.9657 15.8512 23.3857 16.7152C24.291 17.2592 25.0523 17.9952 25.867 18.7832Z" fill="#716FE7"/>
</svg>
