<svg width="20" height="21" viewBox="0 0 20 21" fill="none" xmlns="http://www.w3.org/2000/svg">
<g clip-path="url(#clip0_613_110)">
<path d="M20 10.9951C20 5.47227 15.5229 0.995117 10 0.995117C4.47715 0.995117 0 5.47227 0 10.9951C0 15.9863 3.65684 20.1234 8.4375 20.8736V13.8857H5.89844V10.9951H8.4375V8.79199C8.4375 6.28574 9.93047 4.90137 12.2146 4.90137C13.3084 4.90137 14.4531 5.09668 14.4531 5.09668V7.55762H13.1922C11.95 7.55762 11.5625 8.32852 11.5625 9.12012V10.9951H14.3359L13.8926 13.8857H11.5625V20.8736C16.3432 20.1234 20 15.9863 20 10.9951Z" fill="#1D2130"/>
</g>
<defs>
<clipPath id="clip0_613_110">
<rect width="20" height="20" fill="white" transform="translate(0 0.995117)"/>
</clipPath>
</defs>
</svg>
