<svg width="20" height="21" viewBox="0 0 20 21" fill="none" xmlns="http://www.w3.org/2000/svg">
<g clip-path="url(#clip0_613_114)">
<path d="M18.5195 0.995117H1.47656C0.660156 0.995117 0 1.63965 0 2.43652V19.5498C0 20.3467 0.660156 20.9951 1.47656 20.9951H18.5195C19.3359 20.9951 20 20.3467 20 19.5537V2.43652C20 1.63965 19.3359 0.995117 18.5195 0.995117ZM5.93359 18.0381H2.96484V8.49121H5.93359V18.0381ZM4.44922 7.19043C3.49609 7.19043 2.72656 6.4209 2.72656 5.47168C2.72656 4.52246 3.49609 3.75293 4.44922 3.75293C5.39844 3.75293 6.16797 4.52246 6.16797 5.47168C6.16797 6.41699 5.39844 7.19043 4.44922 7.19043ZM17.043 18.0381H14.0781V13.3975C14.0781 12.292 14.0586 10.8662 12.5352 10.8662C10.9922 10.8662 10.7578 12.0732 10.7578 13.3193V18.0381H7.79688V8.49121H10.6406V9.7959H10.6797C11.0742 9.0459 12.043 8.25293 13.4844 8.25293C16.4883 8.25293 17.043 10.2295 17.043 12.7998V18.0381Z" fill="#1D2130"/>
</g>
<defs>
<clipPath id="clip0_613_114">
<rect width="20" height="20" fill="white" transform="translate(0 0.995117)"/>
</clipPath>
</defs>
</svg>
