<svg width="28" height="28" viewBox="0 0 28 28" fill="none" xmlns="http://www.w3.org/2000/svg">
<path opacity="0.4" d="M27.3332 13.9997C27.3332 21.3637 21.3638 27.333 13.9998 27.333C6.63584 27.333 0.666504 21.3637 0.666504 13.9997C0.666504 6.63705 6.63584 0.666382 13.9998 0.666382C21.3638 0.666382 27.3332 6.63705 27.3332 13.9997Z" fill="#716FE7"/>
<path d="M19.1463 9.60633L16.9863 16.433C16.9063 16.713 16.6796 16.9397 16.3996 17.021L9.59962 19.153C9.14629 19.301 8.70629 18.8597 8.85296 18.4063L10.9863 11.5663C11.0663 11.2863 11.293 11.073 11.573 10.9797L18.3996 8.84633C18.8663 8.69967 19.293 9.13967 19.1463 9.60633Z" fill="#716FE7"/>
</svg>
