<svg width="28" height="28" viewBox="0 0 28 28" fill="none" xmlns="http://www.w3.org/2000/svg">
<path opacity="0.4" d="M19.7769 27.333H8.22141C3.70236 27.333 0.666504 24.1636 0.666504 19.4454V8.55534C0.666504 3.8372 3.70236 0.666382 8.22141 0.666382H19.7783C24.2973 0.666382 27.3332 3.8372 27.3332 8.55534V19.4454C27.3332 24.1636 24.2973 27.333 19.7769 27.333Z" fill="#716FE7"/>
<path fill-rule="evenodd" clip-rule="evenodd" d="M12.9931 9.56638C12.9931 11.393 11.5064 12.8797 9.67974 12.8797C7.85174 12.8797 6.3664 11.393 6.3664 9.56638C6.3664 7.73971 7.85174 6.25171 9.67974 6.25171C11.5064 6.25171 12.9931 7.73971 12.9931 9.56638ZM23.867 16.7832C24.1777 17.0845 24.4003 17.4285 24.547 17.7952C24.991 18.9045 24.7603 20.2378 24.2857 21.3365C23.723 22.6445 22.6457 23.6325 21.2883 24.0645C20.6857 24.2578 20.0537 24.3405 19.423 24.3405H8.24834C7.13634 24.3405 6.15234 24.0818 5.34567 23.5965C4.84034 23.2925 4.751 22.5925 5.12567 22.1365C5.75234 21.3765 6.371 20.6138 6.995 19.8445C8.18434 18.3725 8.98567 17.9458 9.87634 18.3205C10.2377 18.4752 10.6003 18.7085 10.9737 18.9538C11.9683 19.6125 13.351 20.5165 15.1723 19.5352C16.4173 18.8544 17.14 17.6895 17.769 16.6756L17.7817 16.6552C17.824 16.5873 17.866 16.5195 17.9078 16.4519C18.1217 16.1063 18.3324 15.7658 18.571 15.4525C18.867 15.0645 19.9657 13.8512 21.3857 14.7152C22.291 15.2592 23.0523 15.9952 23.867 16.7832Z" fill="#716FE7"/>
</svg>
