<svg width="28" height="28" viewBox="0 0 28 28" fill="none" xmlns="http://www.w3.org/2000/svg">
<path opacity="0.4" d="M19.434 0.666382H23.9486C25.8183 0.666382 27.3333 2.19418 27.3333 4.07967V8.63241C27.3333 10.5179 25.8183 12.0457 23.9486 12.0457H19.434C17.5643 12.0457 16.0493 10.5179 16.0493 8.63241V4.07967C16.0493 2.19418 17.5643 0.666382 19.434 0.666382Z" fill="#716FE7"/>
<path fill-rule="evenodd" clip-rule="evenodd" d="M4.0512 0.666382H8.56582C10.4355 0.666382 11.9505 2.19418 11.9505 4.07967V8.63241C11.9505 10.5179 10.4355 12.0457 8.56582 12.0457H4.0512C2.18151 12.0457 0.666504 10.5179 0.666504 8.63241V4.07967C0.666504 2.19418 2.18151 0.666382 4.0512 0.666382ZM4.0512 15.9537H8.56582C10.4355 15.9537 11.9505 17.4815 11.9505 19.367V23.9197C11.9505 25.8039 10.4355 27.333 8.56582 27.333H4.0512C2.18151 27.333 0.666504 25.8039 0.666504 23.9197V19.367C0.666504 17.4815 2.18151 15.9537 4.0512 15.9537ZM23.9485 15.9537H19.4339C17.5642 15.9537 16.0492 17.4815 16.0492 19.367V23.9197C16.0492 25.8039 17.5642 27.333 19.4339 27.333H23.9485C25.8182 27.333 27.3332 25.8039 27.3332 23.9197V19.367C27.3332 17.4815 25.8182 15.9537 23.9485 15.9537Z" fill="#716FE7"/>
</svg>
