<svg width="28" height="28" viewBox="0 0 28 28" fill="none" xmlns="http://www.w3.org/2000/svg">
<path opacity="0.4" d="M20.219 27.3193H7.77967C5.85098 27.4392 3.95691 26.7705 2.5317 25.4679C1.22904 24.0414 0.560386 22.1473 0.680263 20.22V7.77948C0.560386 5.85214 1.2277 3.95809 2.53037 2.53156C3.95691 1.22891 5.85098 0.560265 7.77967 0.680141H20.219C22.145 0.560265 24.0377 1.22758 25.4629 2.53023C26.7643 3.95809 27.4342 5.8508 27.3197 7.77948V20.22C27.4382 22.1473 26.7709 24.0414 25.4683 25.4679C24.0417 26.7705 22.1476 27.4392 20.219 27.3193" fill="#716FE7"/>
<path d="M20.7392 11.8631L12.0022 20.6436C11.5478 21.0859 10.9506 21.333 10.3275 21.333H7.27667C7.1079 21.333 6.95211 21.268 6.83527 21.1509C6.71843 21.0339 6.6665 20.8778 6.6665 20.7087L6.7444 17.6257C6.75738 17.0143 7.00404 16.442 7.43246 16.0127L13.625 9.80785C13.7288 9.70378 13.9106 9.70378 14.0144 9.80785L16.1864 11.9711C16.3292 12.1129 16.5369 12.2052 16.7576 12.2052C17.2379 12.2052 17.6144 11.815 17.6144 11.3467C17.6144 11.1126 17.5235 10.9044 17.3807 10.7483C17.3418 10.6963 15.2737 8.63711 15.2737 8.63711C15.1439 8.50703 15.1439 8.28589 15.2737 8.15581L16.1435 7.27126C16.9484 6.46476 18.2466 6.46476 19.0515 7.27126L20.7392 8.96232C21.5311 9.75581 21.5311 11.0566 20.7392 11.8631" fill="#716FE7"/>
</svg>
